<svg width="1517" height="166" viewBox="0 0 1517 166" fill="none" xmlns="http://www.w3.org/2000/svg">
  <g filter="url(#filter0_d_203_11)">
  <path d="M170.5 85.5C173.667 92.1667 175.25 98.9167 175.25 105.75C175.25 112.417 173.583 119.083 170.25 125.75C166.917 132.25 161.5 138.083 154 143.25C146.5 148.25 136.917 150.75 125.25 150.75H123.75C122.75 150.917 121.75 151 120.75 151H20.25C15.75 150.833 11.9167 149.25 8.75 146.25C5.75 143.083 4.16667 139.25 4 134.75V20.25C4.16667 15.75 5.75 12 8.75 9C11.9167 5.83333 15.75 4.16667 20.25 4H106.25C107.25 4 108.25 4.08333 109.25 4.25H110.75C122.417 4.58333 132 7.25 139.5 12.25C147 17.25 152.417 23 155.75 29.5C159.083 35.8333 160.75 42.25 160.75 48.75C160.75 55.4167 159.167 61.9167 156 68.25C155.833 68.5833 155.667 68.8333 155.5 69C162.333 73.8333 167.333 79.3333 170.5 85.5ZM126.75 117.5C129.917 117.667 132.5 117.083 134.5 115.75C136.667 114.417 138.25 112.917 139.25 111.25C140.25 109.417 140.75 107.583 140.75 105.75C140.75 104.583 140.25 103 139.25 101C138.25 98.8333 136.667 97.0833 134.5 95.75C132.5 94.4167 129.917 93.6667 126.75 93.5H110.75H37.75V110.75C37.75 115.25 40.0833 117.5 44.75 117.5H46.75H126.75ZM120.25 57.75C122.25 56.5833 123.75 55.25 124.75 53.75C125.75 52.0833 126.25 50.4167 126.25 48.75C126.25 47.0833 125.75 45.5 124.75 44C123.75 42.3333 122.167 40.9167 120 39.75C118 38.4167 115.417 37.6667 112.25 37.5H44.75C40.0833 37.5 37.75 39.75 37.75 44.25V60H112.25C115.417 59.8333 118.083 59.0833 120.25 57.75ZM280.75 157.25C272.083 157.25 263.5 156.25 255 154.25C246.667 152.25 238.667 149.333 231 145.5C223.333 141.5 216.583 136.25 210.75 129.75C204.917 123.25 201.75 115.5 201.25 106.5V96V16.25C201.25 11.5833 202.917 7.75 206.25 4.75C209.75 1.58333 213.833 0 218.5 0C228.5 0.833333 233.917 6.25 234.75 16.25V98.75C235.083 103.917 237 108.25 240.5 111.75C244.167 115.083 248.167 117.75 252.5 119.75C257 121.75 261.583 123.25 266.25 124.25C271.083 125.25 275.917 125.75 280.75 125.75C285.583 125.75 290.333 125.25 295 124.25C299.833 123.25 304.417 121.75 308.75 119.75C313.25 117.75 317.25 115.083 320.75 111.75C324.417 108.25 326.417 103.917 326.75 98.75V16.25C326.75 11.5833 328.417 7.75 331.75 4.75C335.25 1.58333 339.333 0 344 0C354 0.833333 359.5 6.25 360.5 16.25V96V106.5C360 115.5 356.75 123.25 350.75 129.75C344.917 136.25 338.167 141.5 330.5 145.5C322.833 149.333 314.75 152.25 306.25 154.25C297.917 156.25 289.417 157.25 280.75 157.25ZM441.25 4H546.75C551.417 4.16667 555.25 5.91667 558.25 9.25C561.417 12.5833 563 16.5833 563 21.25C562.167 31.25 556.75 36.6667 546.75 37.5H449.75C443.417 37.8333 438.167 40.25 434 44.75C429.833 49.25 426.75 54.4167 424.75 60.25C422.917 65.9167 422 71.75 422 77.75C422 83.75 422.917 89.6667 424.75 95.5C426.75 101.167 429.833 106.25 434 110.75C438.167 115.25 443.417 117.667 449.75 118H525.75C528.75 117.833 530.333 116.167 530.5 113V98.5C530.333 95.1667 528.75 93.5 525.75 93.5H461.75C457.083 93.5 453.083 91.9167 449.75 88.75C446.583 85.4167 445 81.4167 445 76.75C445 72.0833 446.583 68.0833 449.75 64.75C453.083 61.5833 457.083 60 461.75 60H547.25C551.917 60 555.917 61.5833 559.25 64.75C562.25 67.9167 563.833 71.75 564 76.25V76.75V135.25C563.833 139.75 562.25 143.5 559.25 146.5C556.083 149.667 552.25 151.333 547.75 151.5H441.25C429.583 150.833 419.917 146.417 412.25 138.25C404.75 129.917 399.333 120.5 396 110C392.833 99.5 391.25 88.75 391.25 77.75C391.25 66.75 392.917 56 396.25 45.5C399.583 35 405 25.6667 412.5 17.5C420 9.16667 429.583 4.66667 441.25 4ZM612.25 154.5C607.75 154.333 603.917 152.75 600.75 149.75C597.583 146.583 595.917 142.75 595.75 138.25V76C595.917 64.1667 597.583 53 600.75 42.5C604.083 32 609.5 23.1667 617 16C624.667 8.66667 634.333 4.66667 646 4H742.5C747 4.16667 750.75 5.83333 753.75 9C756.917 12 758.583 15.75 758.75 20.25C758.75 24.9167 757.167 28.9167 754 32.25C751 35.5833 747.167 37.3333 742.5 37.5H654.5C648.167 37.8333 642.917 40.25 638.75 44.75C634.583 49.25 631.917 54.4167 630.75 60.25C629.75 65.9167 629.333 72.1667 629.5 79V138.25C629.333 142.917 627.583 146.833 624.25 150C620.917 153 616.917 154.5 612.25 154.5ZM641.25 88.75C641.25 84.0833 642.917 80.1667 646.25 77C649.417 73.6667 653.333 72 658 72H742.5C747.167 72 751.083 73.6667 754.25 77C757.583 80.1667 759.25 84.0833 759.25 88.75C759.25 93.4167 757.667 97.4167 754.5 100.75C751.167 103.917 747.167 105.5 742.5 105.5H658C653.333 105.5 649.333 103.917 646 100.75C642.833 97.4167 641.25 93.4167 641.25 88.75ZM815.75 138.75C814.75 148.75 809.25 154.167 799.25 155C794.583 155 790.5 153.5 787 150.5C783.667 147.333 782 143.417 782 138.75V20.25C782.167 15.5833 783.917 11.75 787.25 8.75C790.583 5.58333 794.583 4 799.25 4H811.5H842.25H904C905 4 906 4.08333 907 4.25H908.5C920.167 4.58333 929.75 7.25 937.25 12.25C944.75 17.25 950.167 23 953.5 29.5C956.833 35.8333 958.5 42.25 958.5 48.75C958.5 55.4167 956.833 62 953.5 68.5C950.333 74.8333 944.917 80.5 937.25 85.5C929.75 90.5 920.167 93.1667 908.5 93.5H864.5C865.833 101.833 868.583 108 872.75 112C876.75 116 881.833 118 888 118H942C946.667 118.167 950.5 119.917 953.5 123.25C956.667 126.583 958.25 130.583 958.25 135.25C958.083 139.75 956.417 143.583 953.25 146.75C950.25 149.75 946.5 151.333 942 151.5H883.5C871.167 151.667 860 146.833 850 137C840 127.167 833.917 115.5 831.75 102C828.75 87 827.25 78.5833 827.25 76.75C827.25 72.0833 828.833 68.1667 832 65C835.333 61.6667 839.333 60 844 60H910C913.167 59.8333 915.75 59.1667 917.75 58C919.917 56.6667 921.5 55.25 922.5 53.75C923.5 52.0833 924 50.4167 924 48.75C924 47.0833 923.5 45.5 922.5 44C921.5 42.3333 919.917 40.9167 917.75 39.75C915.75 38.4167 913.167 37.6667 910 37.5H842.25H822.25C817.917 37.6667 815.75 39.8333 815.75 44V138.75ZM1032 4H1043.5H1128.5C1133.17 4.16667 1137 5.91667 1140 9.25C1143.17 12.5833 1144.75 16.5833 1144.75 21.25C1143.92 31.25 1138.5 36.6667 1128.5 37.5H1040.5C1034.17 37.8333 1028.92 40.25 1024.75 44.75C1020.58 49.25 1017.5 54.4167 1015.5 60.25C1013.67 65.9167 1012.75 71.75 1012.75 77.75C1012.75 83.75 1013.67 89.6667 1015.5 95.5C1017.5 101.167 1020.58 106.25 1024.75 110.75C1028.92 115.25 1034.17 117.667 1040.5 118H1128.5C1133.17 118.167 1137 119.917 1140 123.25C1143.17 126.583 1144.75 130.583 1144.75 135.25C1144.58 139.75 1142.92 143.583 1139.75 146.75C1136.75 149.75 1133 151.333 1128.5 151.5H1036.75H1032C1020.33 150.833 1010.67 146.417 1003 138.25C995.5 129.917 990.083 120.5 986.75 110C983.583 99.5 982 88.75 982 77.75C982 66.75 983.667 56 987 45.5C990.333 35 995.75 25.6667 1003.25 17.5C1010.75 9.16667 1020.33 4.66667 1032 4ZM1144.25 76.75C1144.25 81.4167 1142.58 85.3333 1139.25 88.5C1136.08 91.8333 1132.17 93.5 1127.5 93.5H1052C1047.33 93.5 1043.33 91.9167 1040 88.75C1036.83 85.4167 1035.25 81.4167 1035.25 76.75C1035.25 72.0833 1036.83 68.0833 1040 64.75C1043.33 61.5833 1047.33 60 1052 60H1127.5C1132.17 60 1136.08 61.6667 1139.25 65C1142.58 68.1667 1144.25 72.0833 1144.25 76.75ZM1216.25 4H1227.75H1312.75C1317.42 4.16667 1321.25 5.91667 1324.25 9.25C1327.42 12.5833 1329 16.5833 1329 21.25C1328.17 31.25 1322.75 36.6667 1312.75 37.5H1224.75C1218.42 37.8333 1213.17 40.25 1209 44.75C1204.83 49.25 1201.75 54.4167 1199.75 60.25C1197.92 65.9167 1197 71.75 1197 77.75C1197 83.75 1197.92 89.6667 1199.75 95.5C1201.75 101.167 1204.83 106.25 1209 110.75C1213.17 115.25 1218.42 117.667 1224.75 118H1312.75C1317.42 118.167 1321.25 119.917 1324.25 123.25C1327.42 126.583 1329 130.583 1329 135.25C1328.83 139.75 1327.17 143.583 1324 146.75C1321 149.75 1317.25 151.333 1312.75 151.5H1221H1216.25C1204.58 150.833 1194.92 146.417 1187.25 138.25C1179.75 129.917 1174.33 120.5 1171 110C1167.83 99.5 1166.25 88.75 1166.25 77.75C1166.25 66.75 1167.92 56 1171.25 45.5C1174.58 35 1180 25.6667 1187.5 17.5C1195 9.16667 1204.58 4.66667 1216.25 4ZM1328.5 76.75C1328.5 81.4167 1326.83 85.3333 1323.5 88.5C1320.33 91.8333 1316.42 93.5 1311.75 93.5H1236.25C1231.58 93.5 1227.58 91.9167 1224.25 88.75C1221.08 85.4167 1219.5 81.4167 1219.5 76.75C1219.5 72.0833 1221.08 68.0833 1224.25 64.75C1227.58 61.5833 1231.58 60 1236.25 60H1311.75C1316.42 60 1320.33 61.6667 1323.5 65C1326.83 68.1667 1328.5 72.0833 1328.5 76.75ZM1462.5 4C1474.17 4.66667 1483.75 9.16667 1491.25 17.5C1498.75 25.6667 1504.17 35 1507.5 45.5C1510.83 56 1512.5 66.75 1512.5 77.75C1512.5 88.75 1510.83 99.5 1507.5 110C1504.33 120.5 1498.92 129.917 1491.25 138.25C1483.75 146.417 1474.17 150.833 1462.5 151.5H1370.5C1366 151.333 1362.17 149.75 1359 146.75C1356 143.583 1354.42 139.75 1354.25 135.25V73.25C1354.42 68.5833 1356.17 64.75 1359.5 61.75C1362.83 58.5833 1366.83 57 1371.5 57C1376 57.1667 1379.83 58.8333 1383 62C1386.17 65 1387.83 68.75 1388 73.25V111.25C1388 115.75 1390.33 118 1395 118H1454C1460.33 117.667 1465.58 115.25 1469.75 110.75C1473.92 106.25 1476.92 101.167 1478.75 95.5C1480.75 89.6667 1481.75 83.75 1481.75 77.75C1481.75 71.75 1480.75 65.9167 1478.75 60.25C1476.92 54.4167 1473.92 49.25 1469.75 44.75C1465.58 40.25 1460.33 37.8333 1454 37.5H1370.5C1360.5 36.6667 1355.08 31.25 1354.25 21.25C1354.25 16.5833 1355.75 12.5833 1358.75 9.25C1361.92 5.91667 1365.83 4.16667 1370.5 4H1462.5Z" fill="black"/>
  </g>
  <defs>
  <filter id="filter0_d_203_11" x="0" y="0" width="1516.5" height="165.25" filterUnits="userSpaceOnUse" color-interpolation-filters="sRGB">
  <feFlood flood-opacity="0" result="BackgroundImageFix"/>
  <feColorMatrix in="SourceAlpha" type="matrix" values="0 0 0 0 0 0 0 0 0 0 0 0 0 0 0 0 0 0 127 0" result="hardAlpha"/>
  <feOffset dy="4"/>
  <feGaussianBlur stdDeviation="2"/>
  <feComposite in2="hardAlpha" operator="out"/>
  <feColorMatrix type="matrix" values="0 0 0 0 0 0 0 0 0 0 0 0 0 0 0 0 0 0 0.25 0"/>
  <feBlend mode="normal" in2="BackgroundImageFix" result="effect1_dropShadow_203_11"/>
  <feBlend mode="normal" in="SourceGraphic" in2="effect1_dropShadow_203_11" result="shape"/>
  </filter>
  </defs>
  </svg>
  